<?xml version="1.0" encoding="UTF-8"?>
<!DOCTYPE svg PUBLIC "-//W3C//DTD SVG 1.1//EN" "http://www.w3.org/Graphics/SVG/1.1/DTD/svg11.dtd">
<svg xmlns="http://www.w3.org/2000/svg" version="1.1" width="222px" height="225px" style="shape-rendering:geometricPrecision; text-rendering:geometricPrecision; image-rendering:optimizeQuality; fill-rule:evenodd; clip-rule:evenodd" xmlns:xlink="http://www.w3.org/1999/xlink">
<g><path style="opacity:0.016" fill="#fdfafb" d="M 89.5,-0.5 C 90.8333,-0.5 92.1667,-0.5 93.5,-0.5C 109.415,0.235156 125.415,1.73516 141.5,4C 155.772,10.4679 169.439,17.9679 182.5,26.5C 182.5,27.1667 182.833,27.5 183.5,27.5C 183.5,28.1667 183.833,28.5 184.5,28.5C 184.5,29.1667 184.833,29.5 185.5,29.5C 185.833,30.8333 186.167,30.8333 186.5,29.5C 193.803,38.9837 200.97,48.6503 208,58.5C 212.669,71.5478 217.169,84.5478 221.5,97.5C 221.5,105.5 221.5,113.5 221.5,121.5C 219.629,130.354 217.795,139.354 216,148.5C 211.82,159.46 206.654,169.793 200.5,179.5C 199.167,179.833 199.167,180.167 200.5,180.5C 199.92,182.749 198.587,184.415 196.5,185.5C 196.167,184.167 195.833,184.167 195.5,185.5C 194.833,185.5 194.5,185.833 194.5,186.5C 193.167,186.833 193.167,187.167 194.5,187.5C 193.92,189.749 192.587,191.415 190.5,192.5C 190.167,191.167 189.833,191.167 189.5,192.5C 188.833,192.5 188.5,192.833 188.5,193.5C 187.167,193.833 187.167,194.167 188.5,194.5C 185.789,198.212 182.456,201.212 178.5,203.5C 178.214,201.067 177.548,201.067 176.5,203.5C 175.167,203.833 175.167,204.167 176.5,204.5C 176.5,205.833 175.833,206.5 174.5,206.5C 173.833,205.167 173.167,205.167 172.5,206.5C 171.833,206.5 171.5,206.833 171.5,207.5C 170.508,207.328 169.842,207.662 169.5,208.5C 159.843,214.33 149.51,218.497 138.5,221C 136.456,221.498 135.122,222.665 134.5,224.5C 117.833,224.5 101.167,224.5 84.5,224.5C 84.6107,223.883 84.944,223.383 85.5,223C 72.9533,220.209 61.2866,215.376 50.5,208.5C 50.1583,207.662 49.4916,207.328 48.5,207.5C 47.7377,205.738 46.4044,204.738 44.5,204.5C 44.5,203.833 44.1667,203.5 43.5,203.5C 43.5,202.833 43.1667,202.5 42.5,202.5C 42.5,201.833 42.1667,201.5 41.5,201.5C 41.1583,200.662 40.4916,200.328 39.5,200.5C 39.5,199.833 39.1667,199.5 38.5,199.5C 38.5,198.833 38.1667,198.5 37.5,198.5C 37.5,197.833 37.1667,197.5 36.5,197.5C 36.5,196.833 36.1667,196.5 35.5,196.5C 35.5,195.833 35.1667,195.5 34.5,195.5C 34.5,194.833 34.1667,194.5 33.5,194.5C 33.5,193.833 33.1667,193.5 32.5,193.5C 32.5,192.833 32.1667,192.5 31.5,192.5C 31.5,191.833 31.1667,191.5 30.5,191.5C 30.5,190.833 30.1667,190.5 29.5,190.5C 29.5,189.833 29.1667,189.5 28.5,189.5C 28.5,188.833 28.1667,188.5 27.5,188.5C 27.5,187.833 27.1667,187.5 26.5,187.5C 26.5,186.833 26.1667,186.5 25.5,186.5C 25.5,185.833 25.1667,185.5 24.5,185.5C 24.5,184.833 24.1667,184.5 23.5,184.5C 23.1667,181.833 22.8333,181.833 22.5,184.5C 19.7915,181.792 17.4581,178.792 15.5,175.5C 13.3969,174.02 13.3969,172.853 15.5,172C 14.0229,170.188 12.6896,168.355 11.5,166.5C 10.9553,164.407 10.122,162.407 9,160.5C 8.66667,161.167 8.33333,161.833 8,162.5C 6.83333,160.167 5.66667,157.833 4.5,155.5C 6.02238,153.844 5.68905,152.677 3.5,152C 4.02186,151.439 4.3552,150.772 4.5,150C 2.38691,143.147 0.720241,136.314 -0.5,129.5C -0.5,118.167 -0.5,106.833 -0.5,95.5C 0.754829,89.2344 2.25483,82.901 4,76.5C 9.31689,64.8901 14.8169,53.8901 20.5,43.5C 20.8333,44.8333 21.1667,44.8333 21.5,43.5C 22.1667,43.5 22.5,43.1667 22.5,42.5C 23.4884,41.205 24.4884,39.8717 25.5,38.5C 26.1667,38.5 26.5,38.1667 26.5,37.5C 27.1667,37.5 27.5,37.1667 27.5,36.5C 28.1667,36.5 28.5,36.1667 28.5,35.5C 29.1667,35.5 29.5,35.1667 29.5,34.5C 30.1667,34.5 30.5,34.1667 30.5,33.5C 31.1667,33.5 31.5,33.1667 31.5,32.5C 32.1667,32.5 32.5,32.1667 32.5,31.5C 33.1667,31.5 33.5,31.1667 33.5,30.5C 34.1667,30.5 34.5,30.1667 34.5,29.5C 35.1667,29.5 35.5,29.1667 35.5,28.5C 36.1667,28.5 36.5,28.1667 36.5,27.5C 37.1667,27.5 37.5,27.1667 37.5,26.5C 38.1667,26.5 38.5,26.1667 38.5,25.5C 39.1667,25.5 39.5,25.1667 39.5,24.5C 42.1667,24.1667 42.1667,23.8333 39.5,23.5C 40.8968,21.6207 42.5635,19.9541 44.5,18.5C 46.3217,19.4286 47.6551,18.7619 48.5,16.5C 50.0314,17.4212 51.3647,17.0878 52.5,15.5C 64.2927,8.40202 76.9594,3.56869 90.5,1C 89.944,0.617425 89.6107,0.117425 89.5,-0.5 Z M 89.5,90.5 C 90.5,90.5 91.5,90.5 92.5,90.5C 92.4261,94.5412 91.0928,95.2079 88.5,92.5C 88.8627,91.8165 89.1961,91.1499 89.5,90.5 Z M 126.5,90.5 C 127.5,90.5 128.5,90.5 129.5,90.5C 129.5,91.5 129.5,92.5 129.5,93.5C 128.5,93.5 127.5,93.5 126.5,93.5C 126.5,92.5 126.5,91.5 126.5,90.5 Z M 89.5,126.5 C 93.6046,126.496 95.1046,128.496 94,132.5C 90.7224,135.514 88.2224,135.014 86.5,131C 86.9567,129.06 87.9567,127.56 89.5,126.5 Z M 126.5,129.5 C 127.675,129.281 128.675,129.614 129.5,130.5C 127.948,131.798 126.948,131.465 126.5,129.5 Z M 15.5,175.5 C 15.5109,172.999 16.1776,172.832 17.5,175C 16.9056,175.464 16.2389,175.631 15.5,175.5 Z M 178.5,203.5 C 177.833,203.5 177.167,203.5 176.5,203.5C 177.548,201.067 178.214,201.067 178.5,203.5 Z"/></g>
<g><path style="opacity:0.96" fill="#e1375c" d="M 2.5,130.5 C 2.5,129.167 2.5,127.833 2.5,126.5C 2.55299,120.804 2.21966,115.138 1.5,109.5C 4.3035,61.2056 27.9702,27.7056 72.5,9C 77.0231,7.20254 81.6898,6.03588 86.5,5.5C 142.189,-1.9108 182.355,19.4225 207,69.5C 224.028,121.742 210.861,164.576 167.5,198C 135.827,217.472 102.493,220.805 67.5,208C 45.5124,198.261 28.3457,183.095 16,162.5C 10.7809,151.973 6.28093,141.306 2.5,130.5 Z M 89.5,90.5 C 89.1961,91.1499 88.8627,91.8165 88.5,92.5C 91.0928,95.2079 92.4261,94.5412 92.5,90.5C 91.5,90.5 90.5,90.5 89.5,90.5 Z M 126.5,90.5 C 126.5,91.5 126.5,92.5 126.5,93.5C 127.5,93.5 128.5,93.5 129.5,93.5C 129.5,92.5 129.5,91.5 129.5,90.5C 128.5,90.5 127.5,90.5 126.5,90.5 Z M 89.5,126.5 C 87.9567,127.56 86.9567,129.06 86.5,131C 88.2224,135.014 90.7224,135.514 94,132.5C 95.1046,128.496 93.6046,126.496 89.5,126.5 Z M 126.5,129.5 C 126.948,131.465 127.948,131.798 129.5,130.5C 128.675,129.614 127.675,129.281 126.5,129.5 Z"/></g>
<g><path style="opacity:0.962" fill="#f4a8ab" d="M 95.5,8.5 C 125.029,5.73193 150.695,14.2319 172.5,34C 161.855,27.6831 150.522,22.3497 138.5,18C 99.5584,7.84954 65.3917,16.3495 36,43.5C 47.2073,27.7712 62.3739,17.2712 81.5,12C 86.2954,10.8011 90.9621,9.63448 95.5,8.5 Z"/></g>
<g><path style="opacity:0.004" fill="#fefffe" d="M 52.5,15.5 C 51.8333,14.1667 51.8333,14.1667 52.5,15.5 Z"/></g>
<g><path style="opacity:0.453" fill="#b83556" d="M 2.5,130.5 C 6.28093,141.306 10.7809,151.973 16,162.5C 28.3457,183.095 45.5124,198.261 67.5,208C 102.493,220.805 135.827,217.472 167.5,198C 210.861,164.576 224.028,121.742 207,69.5C 182.355,19.4225 142.189,-1.9108 86.5,5.5C 134.389,-3.47536 172.555,11.858 201,51.5C 226.167,93.6267 225.501,135.293 199,176.5C 164.914,219.19 121.747,232.023 69.5,215C 32.5029,198.499 10.1695,170.332 2.5,130.5 Z"/></g>
<g><path style="opacity:0.004" fill="#fefffe" d="M 39.5,23.5 C 39.5,23.8333 39.5,24.1667 39.5,24.5C 38.8333,24.5 38.5,24.8333 38.5,25.5C 37.8333,25.5 37.5,25.8333 37.5,26.5C 36.8333,26.5 36.5,26.8333 36.5,27.5C 35.8333,27.5 35.5,27.8333 35.5,28.5C 34.8333,28.5 34.5,28.8333 34.5,29.5C 33.8333,29.5 33.5,29.8333 33.5,30.5C 32.8333,30.5 32.5,30.8333 32.5,31.5C 31.8333,31.5 31.5,31.8333 31.5,32.5C 30.8333,32.5 30.5,32.8333 30.5,33.5C 29.8333,33.5 29.5,33.8333 29.5,34.5C 28.8333,34.5 28.5,34.8333 28.5,35.5C 27.8333,35.5 27.5,35.8333 27.5,36.5C 26.8333,36.5 26.5,36.8333 26.5,37.5C 25.8333,37.5 25.5,37.8333 25.5,38.5C 24.475,38.1034 24.3083,37.4368 25,36.5C 29.4262,31.5663 34.2595,27.233 39.5,23.5 Z"/></g>
<g><path style="opacity:0.004" fill="#fefffe" d="M 182.5,26.5 C 184.725,25.6679 186.058,26.6679 186.5,29.5C 186.167,29.5 185.833,29.5 185.5,29.5C 184.833,29.5 184.5,29.1667 184.5,28.5C 183.833,28.5 183.5,28.1667 183.5,27.5C 182.833,27.5 182.5,27.1667 182.5,26.5 Z"/></g>
<g><path style="opacity:0.004" fill="#fefffe" d="M 22.5,42.5 C 21.8333,42.5 21.5,42.8333 21.5,43.5C 21.1667,43.5 20.8333,43.5 20.5,43.5C 21.032,40.5404 21.6987,40.2071 22.5,42.5 Z"/></g>
<g><path style="opacity:1" fill="#b62d51" d="M 105.5,40.5 C 134.343,41.5099 155.843,54.5099 170,79.5C 182.868,111.168 177.035,138.668 152.5,162C 128.484,180.21 102.817,182.876 75.5,170C 44.2645,149.704 33.7645,121.537 44,85.5C 55.9096,58.6399 76.4096,43.6399 105.5,40.5 Z M 89.5,90.5 C 89.1961,91.1499 88.8627,91.8165 88.5,92.5C 91.0928,95.2079 92.4261,94.5412 92.5,90.5C 91.5,90.5 90.5,90.5 89.5,90.5 Z M 126.5,90.5 C 126.5,91.5 126.5,92.5 126.5,93.5C 127.5,93.5 128.5,93.5 129.5,93.5C 129.5,92.5 129.5,91.5 129.5,90.5C 128.5,90.5 127.5,90.5 126.5,90.5 Z M 89.5,126.5 C 87.9567,127.56 86.9567,129.06 86.5,131C 88.2224,135.014 90.7224,135.514 94,132.5C 95.1046,128.496 93.6046,126.496 89.5,126.5 Z M 126.5,129.5 C 126.948,131.465 127.948,131.798 129.5,130.5C 128.675,129.614 127.675,129.281 126.5,129.5 Z"/></g>
<g><path style="opacity:0.976" fill="#e1375c" d="M 102.5,47.5 C 143.346,48.3501 166.013,69.0167 170.5,109.5C 165.847,150.656 142.847,171.156 101.5,171C 75.2766,167.116 57.7766,152.616 49,127.5C 41.0929,92.8502 52.9263,67.6836 84.5,52C 90.5532,50.1533 96.5532,48.6533 102.5,47.5 Z M 89.5,90.5 C 89.1961,91.1499 88.8627,91.8165 88.5,92.5C 91.0928,95.2079 92.4261,94.5412 92.5,90.5C 91.5,90.5 90.5,90.5 89.5,90.5 Z M 126.5,90.5 C 126.5,91.5 126.5,92.5 126.5,93.5C 127.5,93.5 128.5,93.5 129.5,93.5C 129.5,92.5 129.5,91.5 129.5,90.5C 128.5,90.5 127.5,90.5 126.5,90.5 Z M 89.5,126.5 C 87.9567,127.56 86.9567,129.06 86.5,131C 88.2224,135.014 90.7224,135.514 94,132.5C 95.1046,128.496 93.6046,126.496 89.5,126.5 Z M 126.5,129.5 C 126.948,131.465 127.948,131.798 129.5,130.5C 128.675,129.614 127.675,129.281 126.5,129.5 Z"/></g>
<g><path style="opacity:1" fill="#f3a4a8" d="M 194.5,63.5 C 195.077,62.2267 195.743,62.2267 196.5,63.5C 209.949,88.5205 212.116,114.52 203,141.5C 201.318,144.864 199.651,148.198 198,151.5C 202.482,137.445 204.982,122.945 205.5,108C 204.672,92.333 201.006,77.4997 194.5,63.5 Z"/></g>
<g><path style="opacity:0.604" fill="#b83255" d="M 99.5,87.5 C 93.998,82.2138 88.498,82.2138 83,87.5C 81.9207,90.0627 81.4207,92.7294 81.5,95.5C 78.2124,89.515 79.5457,84.6817 85.5,81C 92.4676,78.7428 97.1343,80.9095 99.5,87.5 Z"/></g>
<g><path style="opacity:0.629" fill="#b93657" d="M 136.5,87.5 C 130.571,81.8503 125.071,82.1836 120,88.5C 119.502,91.4816 119.335,94.4816 119.5,97.5C 118.503,97.5299 117.836,97.0299 117.5,96C 114.735,84.768 119.068,79.768 130.5,81C 133.749,82.08 135.749,84.2467 136.5,87.5 Z"/></g>
<g><path style="opacity:0.105" fill="#fefbfb" d="M 99.5,87.5 C 100.613,98.2223 95.9466,102.389 85.5,100C 83.8065,98.7501 82.4732,97.2501 81.5,95.5C 81.4207,92.7294 81.9207,90.0627 83,87.5C 88.498,82.2138 93.998,82.2138 99.5,87.5 Z M 89.5,90.5 C 89.1961,91.1499 88.8627,91.8165 88.5,92.5C 91.0928,95.2079 92.4261,94.5412 92.5,90.5C 91.5,90.5 90.5,90.5 89.5,90.5 Z"/></g>
<g><path style="opacity:0.106" fill="#fefbfb" d="M 136.5,87.5 C 138.114,95.2471 134.947,99.9137 127,101.5C 124.037,100.974 121.537,99.641 119.5,97.5C 119.335,94.4816 119.502,91.4816 120,88.5C 125.071,82.1836 130.571,81.8503 136.5,87.5 Z M 126.5,90.5 C 126.5,91.5 126.5,92.5 126.5,93.5C 127.5,93.5 128.5,93.5 129.5,93.5C 129.5,92.5 129.5,91.5 129.5,90.5C 128.5,90.5 127.5,90.5 126.5,90.5 Z"/></g>
<g><path style="opacity:0.089" fill="#bf4b67" d="M 1.5,109.5 C 2.21966,115.138 2.55299,120.804 2.5,126.5C 1.65955,122.004 0.992884,117.337 0.5,112.5C 0.519537,111.274 0.852871,110.274 1.5,109.5 Z"/></g>
<g><path style="opacity:0.542" fill="#b93656" d="M 99.5,125.5 C 93.7257,121.242 88.2257,121.576 83,126.5C 82.023,128.74 81.523,131.073 81.5,133.5C 78.0161,127.451 79.3495,122.617 85.5,119C 89.2613,118.262 92.9279,118.595 96.5,120C 98.16,121.488 99.16,123.321 99.5,125.5 Z"/></g>
<g><path style="opacity:0.679" fill="#ba3858" d="M 136.5,125.5 C 130.305,120.962 124.805,121.629 120,127.5C 119.341,130.888 119.508,134.221 120.5,137.5C 117.645,135.299 116.311,132.299 116.5,128.5C 117.517,120.148 122.184,116.981 130.5,119C 134.089,119.754 136.089,121.921 136.5,125.5 Z"/></g>
<g><path style="opacity:0.058" fill="#fdfafa" d="M 99.5,125.5 C 100.639,135.802 95.9722,139.969 85.5,138C 83.3909,137.093 82.0576,135.593 81.5,133.5C 81.523,131.073 82.023,128.74 83,126.5C 88.2257,121.576 93.7257,121.242 99.5,125.5 Z M 89.5,126.5 C 87.9567,127.56 86.9567,129.06 86.5,131C 88.2224,135.014 90.7224,135.514 94,132.5C 95.1046,128.496 93.6046,126.496 89.5,126.5 Z"/></g>
<g><path style="opacity:0.108" fill="#fefcfc" d="M 136.5,125.5 C 138.147,133.584 134.98,137.917 127,138.5C 124.784,138.347 122.617,138.014 120.5,137.5C 119.508,134.221 119.341,130.888 120,127.5C 124.805,121.629 130.305,120.962 136.5,125.5 Z M 126.5,129.5 C 126.948,131.465 127.948,131.798 129.5,130.5C 128.675,129.614 127.675,129.281 126.5,129.5 Z"/></g>
<g><path style="opacity:0.004" fill="#fefffe" d="M 11.5,166.5 C 11.631,167.239 11.4643,167.906 11,168.5C 10.3083,167.563 10.475,166.897 11.5,166.5 Z"/></g>
<g><path style="opacity:0.004" fill="#fefffe" d="M 11.5,169.5 C 12.8333,170.167 12.8333,170.167 11.5,169.5 Z"/></g>
<g><path style="opacity:0.004" fill="#fefffe" d="M 200.5,179.5 C 201.833,180.167 201.833,180.167 200.5,179.5 Z"/></g>
<g><path style="opacity:1" fill="#b82d51" d="M 35.5,177.5 C 69.5023,207.129 107.836,213.963 150.5,198C 157.926,194.232 165.092,190.066 172,185.5C 160.46,198.044 145.96,206.21 128.5,210C 92.133,216.433 61.2997,206.266 36,179.5C 35.5357,178.906 35.369,178.239 35.5,177.5 Z"/></g>
<g><path style="opacity:0.004" fill="#fefffe" d="M 22.5,184.5 C 22.8333,184.5 23.1667,184.5 23.5,184.5C 24.1667,184.5 24.5,184.833 24.5,185.5C 25.1667,185.5 25.5,185.833 25.5,186.5C 26.1667,186.5 26.5,186.833 26.5,187.5C 27.1667,187.5 27.5,187.833 27.5,188.5C 28.1667,188.5 28.5,188.833 28.5,189.5C 29.1667,189.5 29.5,189.833 29.5,190.5C 30.1667,190.5 30.5,190.833 30.5,191.5C 31.1667,191.5 31.5,191.833 31.5,192.5C 31.5,192.833 31.5,193.167 31.5,193.5C 27.5,191.5 24.5,188.5 22.5,184.5 Z"/></g>
<g><path style="opacity:0.004" fill="#fefffe" d="M 195.5,185.5 C 195.833,185.5 196.167,185.5 196.5,185.5C 196.315,186.17 195.981,186.17 195.5,185.5 Z"/></g>
<g><path style="opacity:0.004" fill="#fefffe" d="M 194.5,186.5 C 194.833,186.5 195.167,186.5 195.5,186.5C 195.315,187.17 194.981,187.17 194.5,186.5 Z"/></g>
<g><path style="opacity:0.004" fill="#fefffe" d="M 21.5,190.5 C 20.8333,189.167 20.8333,189.167 21.5,190.5 Z"/></g>
<g><path style="opacity:0.004" fill="#fefffe" d="M 21.5,190.5 C 22.8333,191.167 22.8333,191.167 21.5,190.5 Z"/></g>
<g><path style="opacity:0.004" fill="#fefffe" d="M 189.5,192.5 C 189.833,192.5 190.167,192.5 190.5,192.5C 190.315,193.17 189.981,193.17 189.5,192.5 Z"/></g>
<g><path style="opacity:0.004" fill="#fefffe" d="M 31.5,193.5 C 31.8333,193.5 32.1667,193.5 32.5,193.5C 33.1667,193.5 33.5,193.833 33.5,194.5C 34.1667,194.5 34.5,194.833 34.5,195.5C 35.1667,195.5 35.5,195.833 35.5,196.5C 36.1667,196.5 36.5,196.833 36.5,197.5C 37.1667,197.5 37.5,197.833 37.5,198.5C 38.1667,198.5 38.5,198.833 38.5,199.5C 39.1667,199.5 39.5,199.833 39.5,200.5C 39.5,200.833 39.5,201.167 39.5,201.5C 35.8333,199.833 33.1667,197.167 31.5,193.5 Z"/></g>
<g><path style="opacity:0.004" fill="#fefffe" d="M 188.5,193.5 C 188.833,193.5 189.167,193.5 189.5,193.5C 189.315,194.17 188.981,194.17 188.5,193.5 Z"/></g>
<g><path style="opacity:0.004" fill="#fefffe" d="M 39.5,201.5 C 40.1667,201.5 40.8333,201.5 41.5,201.5C 42.1667,201.5 42.5,201.833 42.5,202.5C 43.1667,202.5 43.5,202.833 43.5,203.5C 43.5,203.833 43.5,204.167 43.5,204.5C 41.5956,204.262 40.2623,203.262 39.5,201.5 Z"/></g>
<g><path style="opacity:0.004" fill="#fefffe" d="M 176.5,204.5 C 176.5,204.167 176.5,203.833 176.5,203.5C 177.167,203.5 177.833,203.5 178.5,203.5C 178.591,205.698 177.925,206.031 176.5,204.5 Z"/></g>
<g><path style="opacity:0.004" fill="#fefffe" d="M 43.5,204.5 C 43.8333,204.5 44.1667,204.5 44.5,204.5C 45.463,205.363 45.463,206.03 44.5,206.5C 43.7025,206.043 43.3691,205.376 43.5,204.5 Z"/></g>
<g><path style="opacity:0.004" fill="#fefffe" d="M 172.5,207.5 C 172.5,207.167 172.5,206.833 172.5,206.5C 173.167,206.5 173.833,206.5 174.5,206.5C 174.158,207.338 173.492,207.672 172.5,207.5 Z"/></g>
<g><path style="opacity:0.004" fill="#fefffe" d="M 48.5,207.5 C 47.8333,208.167 47.8333,208.167 48.5,207.5 Z"/></g>
<g><path style="opacity:0.004" fill="#fefffe" d="M 171.5,207.5 C 171.833,207.5 172.167,207.5 172.5,207.5C 172.315,208.17 171.981,208.17 171.5,207.5 Z"/></g>
<g><path style="opacity:0.004" fill="#fefffe" d="M 50.5,208.5 C 49.8333,209.167 49.8333,209.167 50.5,208.5 Z"/></g>
<g><path style="opacity:0.004" fill="#fefffe" d="M 169.5,208.5 C 170.833,209.167 170.833,209.167 169.5,208.5 Z"/></g>
</svg>
